<?xml version="1.0" encoding="UTF-8"?>
<svg width="362px" height="193px" viewBox="0 0 362 193" version="1.1" xmlns="http://www.w3.org/2000/svg" xmlns:xlink="http://www.w3.org/1999/xlink">
    <!-- Generator: Sketch 58 (84663) - https://sketch.com -->
    <title>feature-window-3</title>
    <desc>Created with Sketch.</desc>
    <defs>
        <rect id="path-1" x="0" y="0" width="314.090909" height="145" rx="8"></rect>
        <filter x="-12.7%" y="-22.1%" width="125.5%" height="155.2%" filterUnits="objectBoundingBox" id="filter-2">
            <feOffset dx="0" dy="8" in="SourceAlpha" result="shadowOffsetOuter1"></feOffset>
            <feGaussianBlur stdDeviation="12" in="shadowOffsetOuter1" result="shadowBlurOuter1"></feGaussianBlur>
            <feColorMatrix values="0 0 0 0 0   0 0 0 0 0   0 0 0 0 0  0 0 0 0.2 0" type="matrix" in="shadowBlurOuter1"></feColorMatrix>
        </filter>
    </defs>
    <g id="Templates" stroke="none" stroke-width="1" fill="none" fill-rule="evenodd">
        <g id="Landing-Page-Example" transform="translate(-188.000000, -1676.000000)">
            <g id="images" transform="translate(111.000000, 1692.000000)">
                <g id="feature-window-3" transform="translate(101.000000, 0.000000)">
                    <g id="window">
                        <use fill="black" fill-opacity="1" filter="url(#filter-2)" xlink:href="#path-1"></use>
                        <use fill="#3D43B1" fill-rule="evenodd" xlink:href="#path-1"></use>
                    </g>
                    <rect id="Rectangle" fill="#23D5FB" x="215.545455" y="47.0909091" width="76" height="76" rx="8"></rect>
                    <g id="nav" opacity="0.8" transform="translate(16.363636, 15.545455)" fill="#FFFFFF" fill-rule="nonzero">
                        <g id="nav-right" transform="translate(228.181818, 0.000000)">
                            <g id="pencil" transform="translate(22.090909, 0.000000)">
                                <path d="M8.78753417,0 C8.5607342,0 8.33390631,0.0866143038 8.16084254,0.259676718 L7.53415134,0.886363199 L9.75007678,3.10227119 L10.376768,2.47558471 C10.7228955,2.12945989 10.7228955,1.56833658 10.376768,1.22221175 L9.4142258,0.259676718 C9.24116203,0.0866143038 9.01433414,0 8.78753417,0 Z M6.64778117,1.7727264 L1.32956012,7.09090559 L1.99433775,7.31249639 L2.2159303,8.42045039 L3.32389301,8.64204119 L3.54548556,9.30681358 L8.86370661,3.98863439 L6.64778117,1.7727264 Z M0.510706448,8.93114804 L0.0164511932,10.32994 C0.00545578821,10.3568627 -0.000132548192,10.3856865 2.38673872e-06,10.4147676 C2.38673872e-06,10.5371488 0.0992152216,10.6363611 0.221597404,10.6363611 C0.249111731,10.6364937 0.276410621,10.6315036 0.302097809,10.6216434 L1.70522871,10.1256607 L0.510706448,8.93114804 Z" id="Shape"></path>
                            </g>
                            <g id="speech_bubble">
                                <path d="M6.13636364,0 C2.7472028,0 0,2.25654545 0,5.04 C0,6.58315636 0.846501026,7.9625054 2.17667585,8.88711631 C2.2106394,9.59087625 2.09829575,10.5626405 1.0980182,11.0106818 C1.09740224,11.0109775 1.0967876,11.0112758 1.09617432,11.0115766 C1.00468163,11.0453513 0.944163068,11.1304401 0.944055944,11.2254545 C0.944055944,11.351978 1.049723,11.4545455 1.18006993,11.4545455 C1.18570462,11.4545455 1.19103826,11.453679 1.19666464,11.4536506 C1.19789388,11.4536599 1.19912317,11.4536599 1.20035241,11.4536506 C2.34928081,11.4465021 3.32462206,10.8438047 3.99748689,10.207074 C4.21084353,10.0050158 4.50828016,9.90558301 4.80140953,9.95919028 C5.23095498,10.0384557 5.67755245,10.08 6.13636364,10.08 C9.52552448,10.08 12.2727273,7.82345455 12.2727273,5.04 C12.2727273,2.25654545 9.52552448,0 6.13636364,0 Z" id="Path"></path>
                            </g>
                            <g id="like" transform="translate(42.545455, 0.818182)">
                                <path d="M2.90059039,0 C1.29848811,0 0,1.30756845 0,2.92087428 C0,5.72905235 3.23477301,8.41230699 4.746027,9.60724443 C4.74746609,9.60841108 4.7489088,9.60957321 4.75035511,9.61073078 C4.76071006,9.61891736 4.77478817,9.63057823 4.78497869,9.63862334 L4.78584423,9.63775175 C4.93917362,9.75441816 5.12600383,9.81774224 5.31818182,9.81818182 C5.51065611,9.81793128 5.69781907,9.7545974 5.85138494,9.63775175 L5.85138494,9.63862334 C5.85436756,9.63626876 5.85877544,9.63314524 5.8617718,9.63077861 C5.86405064,9.62897876 5.86727523,9.62648405 5.86956249,9.62467706 C5.87246478,9.62208126 5.8753501,9.6194663 5.87821827,9.61683233 C7.38478694,8.42618856 10.6363636,5.73575326 10.6363636,2.92087428 C10.6363636,1.30756845 9.33787548,0 7.7357732,0 C6.20458002,0 5.31818182,1.33884298 5.31818182,1.33884298 C5.31818182,1.33884298 4.43178361,0 2.90059039,0 Z" id="Path"></path>
                            </g>
                        </g>
                        <g id="close" transform="translate(0.000000, 0.818182)">
                            <path d="M0.90958435,0.000396635117 C0.54100487,0.000853254647 0.209417534,0.224596324 0.070890628,0.566316642 C-0.0676362777,0.90803696 0.0144957258,1.29965417 0.27862955,1.55684571 L2.80952823,4.0889529 L0.27862955,6.62106031 C0.0419048914,6.84845157 -0.0534529196,7.18611375 0.0293322054,7.50382267 C0.11211733,7.82153158 0.360109366,8.06964194 0.677666675,8.15246648 C0.995223984,8.23529103 1.33272498,8.13988756 1.56000762,7.90304979 L4.09090631,5.37094283 L6.62180522,7.90304979 C6.84908715,8.13989085 7.18658977,8.23529682 7.50414912,8.15247267 C7.82170847,8.06964852 8.06970205,7.82153652 8.15248668,7.50382554 C8.2352713,7.18611455 8.13991086,6.84845077 7.90318284,6.62106031 L5.37228438,4.0889529 L7.90318284,1.55684571 C8.17119144,1.29620588 8.2517755,0.897687305 8.10610523,0.553317955 C7.96043495,0.208948604 7.61839373,-0.0106262049 7.24479566,0.000396635117 C7.00937449,0.00741474167 6.78593181,0.105852667 6.62180522,0.274855783 L4.09090631,2.80696297 L1.56000762,0.274855783 C1.38918833,0.0991785171 1.15455829,0.000171666047 0.90958435,0.000396635117 Z" id="Path"></path>
                        </g>
                    </g>
                    <g id="row" transform="translate(20.000000, 38.000000)">
                        <circle id="avatar" fill="#F3B133" cx="20" cy="20" r="20"></circle>
                        <rect id="text-line" fill-opacity="0.8" fill="#FFFFFF" x="48" y="4" width="54" height="12" rx="4"></rect>
                        <rect id="text-line" fill-opacity="0.8" fill="#FFFFFF" x="48" y="24" width="122" height="12" rx="4"></rect>
                    </g>
                    <g id="row" transform="translate(20.000000, 90.000000)">
                        <circle id="avatar" fill="#33A8F3" cx="20" cy="20" r="20"></circle>
                        <rect id="text-line" fill-opacity="0.8" fill="#FFFFFF" x="48" y="4" width="54" height="12" rx="4"></rect>
                        <rect id="text-line" fill-opacity="0.8" fill="#FFFFFF" x="48" y="24" width="122" height="12" rx="4"></rect>
                    </g>
                </g>
            </g>
        </g>
    </g>
</svg>