<svg width="113" height="113" xmlns="http://www.w3.org/2000/svg">
 <defs>
  <clipPath id="clip0">
   <rect id="svg_1" x="40" y="25" fill="white" height="32" width="32"/>
  </clipPath>
 </defs>
 <g>
  <title>Layer 1</title>
  <g id="svg_3" clip-path="url(#clip0)">
   <path id="svg_4" fill="#A6A9B4" d="m71.8754,34.6235c-0.3425,-1.7736 -1.3559,-3.3093 -2.8524,-4.3196c-1.1248,-0.7613 -2.4325,-1.163 -3.7854,-1.163c-2.2528,0 -4.3489,1.1128 -5.6094,2.9738l-6.9471,10.2753c-1.0124,1.4975 -1.381,3.2982 -1.0375,5.0739c0.3424,1.7736 1.3558,3.3083 2.8523,4.3186c1.1239,0.7623 2.4326,1.163 3.7855,1.163c2.2518,0 4.3479,-1.1128 5.6073,-2.9748l6.9472,-10.2733c1.0144,-1.4995 1.382,-3.2992 1.0395,-5.0739zm-5.7027,-1.391c-0.1738,-0.0392 -1.6331,-0.3194 -2.8585,1.4894l-1.842,2.7248c-0.2189,0.3214 -0.5734,0.4961 -0.936,0.4961c-0.218,0 -0.4379,-0.0622 -0.6308,-0.1948c-0.5162,-0.3485 -0.6508,-1.0495 -0.3023,-1.5658l1.842,-2.7237c2.1855,-3.2319 5.1906,-2.4365 5.3171,-2.4004c0.6006,0.1678 0.9512,0.7884 0.7834,1.388c-0.1657,0.5936 -0.7804,0.9411 -1.3729,0.7864zm-4.1501,15.4727c-0.8396,1.2424 -2.2387,1.9856 -3.7412,1.9856c-0.8999,0 -1.7737,-0.2692 -2.522,-0.7753c-0.9973,-0.6739 -1.6732,-1.6964 -1.9022,-2.8805c-0.229,-1.1831 0.018,-2.3832 0.692,-3.3795l2.772,-4.1017c0.4118,-0.6087 1.2404,-0.7693 1.8511,-0.3576l5.2638,3.5584c0.2933,0.1968 0.4952,0.5042 0.5625,0.8506c0.0663,0.3485 -0.0061,0.7061 -0.2039,0.9994l-2.7721,4.1006z"/>
   <path id="svg_5" fill="#A6A9B4" d="m53.8793,36.0978c0.0563,-3.8315 -3.003,-6.9841 -6.8357,-7.0423c-3.8316,-0.0563 -6.9853,3.0029 -7.0426,6.8364c-0.0572,3.8316 3.0031,6.9842 6.8357,7.0394c3.8327,0.0582 6.9854,-2.9999 7.0426,-6.8335zm-3.0532,1.1299c-0.0091,0 -0.0201,0 -0.0302,0l-7.7697,-0.2049c-0.6217,-0.0171 -1.1139,-0.5353 -1.0968,-1.159c0.0171,-0.6207 0.5092,-1.1058 1.156,-1.0967l7.7698,0.2029c0.6217,0.016 1.1128,0.5343 1.0967,1.1569c-0.017,0.6137 -0.5172,1.1008 -1.1258,1.1008z"/>
  </g>
  <text opacity="0.66" transform="matrix(1.63728, 0, 0, 1.60704, -19.3148, -46.4441)" xml:space="preserve" text-anchor="start" font-family="sans-serif" font-size="9" stroke-width="0" id="svg_6" y="83.95691" x="26.79881" fill="#000000">Medicines</text>
 </g>
</svg>